<svg width="57" height="56" viewBox="0 0 57 56" fill="none" xmlns="http://www.w3.org/2000/svg">
<rect x="0.0131836" width="56" height="56" rx="8" fill="#5D5FEF"/>
<path d="M22.3875 17.6274C21.2554 18.7805 21.2554 20.6464 22.4084 21.7994L24.9242 24.3152C27.2932 26.6842 27.2932 30.5418 24.9242 32.9108L20.3119 28.2985C19.1274 27.114 18.5299 25.5521 18.5299 24.0007C18.5299 22.4493 19.1274 20.8875 20.3119 19.7029L22.356 17.6589C22.3665 17.6484 22.377 17.6379 22.3875 17.6274Z" fill="#5D5FEF" stroke="white" stroke-width="2" stroke-miterlimit="10"/>
<path d="M24.3999 23.7899L22.4082 21.7983C21.2552 20.6452 21.2447 18.7898 22.3873 17.6263C23.5194 16.5151 25.3224 16.5361 26.444 17.6577C27.01 18.2238 27.293 18.968 27.293 19.7018C27.293 20.4356 27.01 21.1798 26.444 21.7459L25.9723 22.2176" fill="#5D5FEF"/>
<path d="M24.3999 23.7899L22.4082 21.7983C21.2552 20.6452 21.2447 18.7898 22.3873 17.6263C23.5194 16.5151 25.3224 16.5361 26.444 17.6577C27.01 18.2238 27.293 18.968 27.293 19.7018C27.293 20.4356 27.01 21.1798 26.444 21.7459L25.9723 22.2176" stroke="white" stroke-width="2" stroke-miterlimit="10"/>
<path d="M34.2847 38.2246C35.4168 37.0716 35.4168 35.2057 34.2637 34.0526L31.7479 31.5368C29.3789 29.1678 29.3789 25.3103 31.7479 22.9413L36.3602 27.5535C37.5447 28.738 38.1422 30.2999 38.1422 31.8513C38.1422 33.4027 37.5447 34.9646 36.3602 36.1491L34.3161 38.1932C34.2952 38.2141 34.2847 38.2246 34.2847 38.2246Z" fill="#5D5FEF" stroke="white" stroke-width="2" stroke-miterlimit="10"/>
<path d="M32.2611 32.0713L34.2528 34.0629C35.4058 35.216 35.4163 37.0714 34.2737 38.2349C33.1416 39.3461 31.3387 39.3251 30.217 38.2035C29.651 37.6374 29.368 36.8932 29.368 36.1594C29.368 35.4257 29.651 34.6814 30.217 34.1154L30.6992 33.6332" fill="#5D5FEF"/>
<path d="M32.2611 32.0713L34.2528 34.0629C35.4058 35.216 35.4163 37.0714 34.2737 38.2349C33.1416 39.3461 31.3387 39.3251 30.217 38.2035C29.651 37.6374 29.368 36.8932 29.368 36.1594C29.368 35.4257 29.651 34.6814 30.217 34.1154L30.6992 33.6332" stroke="white" stroke-width="2" stroke-miterlimit="10"/>
</svg>
