<svg width="33" height="32" viewBox="0 0 33 32" fill="none" xmlns="http://www.w3.org/2000/svg">
<mask id="mask0_81_258" style="mask-type:luminance" maskUnits="userSpaceOnUse" x="0" y="0" width="33" height="32">
<rect x="0.0131836" width="32" height="32" fill="white"/>
</mask>
<g mask="url(#mask0_81_258)">
<path d="M13.6836 7.84582L14.0548 13.3658L14.2391 16.1402C14.2411 16.4255 14.2857 16.709 14.372 16.9814C14.5945 17.5102 15.13 17.8462 15.7125 17.8227L24.5888 17.242C24.9732 17.2358 25.3444 17.3795 25.6207 17.6418C25.8509 17.8603 25.9996 18.1462 26.0465 18.4536L26.0623 18.6403C25.6949 23.7266 21.9593 27.969 16.8836 29.064C11.8078 30.1591 6.6029 27.8458 4.0947 23.3799C3.3716 22.0824 2.91995 20.6564 2.76626 19.1854C2.70206 18.7499 2.67379 18.31 2.68172 17.87C2.67379 12.417 6.55704 7.70265 11.9929 6.56613C12.6471 6.46425 13.2885 6.8106 13.5508 7.40741C13.6187 7.54562 13.6635 7.69365 13.6836 7.84582Z" fill="white"/>
<path opacity="0.4" d="M29.3467 13.083L29.3373 13.1265L29.3104 13.1897L29.3141 13.3632C29.3003 13.5929 29.2115 13.814 29.0587 13.9926C28.8993 14.1786 28.6817 14.3053 28.4421 14.3545L28.296 14.3745L18.0549 15.0381C17.7143 15.0717 17.3751 14.9618 17.1219 14.736C16.9107 14.5476 16.7757 14.2934 16.7376 14.0196L16.0503 3.79337C16.0383 3.7588 16.0383 3.72132 16.0503 3.68673C16.0596 3.40485 16.1837 3.13841 16.3948 2.94693C16.6057 2.75545 16.8863 2.65489 17.1733 2.66772C23.2532 2.8224 28.3631 7.19435 29.3467 13.083Z" fill="white"/>
</g>
</svg>
